<svg xmlns="http://www.w3.org/2000/svg" viewBox="0 0 64 80" x="0px" y="0px"><title>Humidity</title><g><path d="M37,43a2,2,0,1,1,2-2A2.0027,2.0027,0,0,1,37,43ZM29,31a2,2,0,1,0-2,2A2.0027,2.0027,0,0,0,29,31Zm23,9a20,20,0,0,1-40,0C12,23.9463,30.502,5.0908,31.29,4.2959a1.029,1.029,0,0,1,1.42,0C33.498,5.0908,52,23.9463,52,40ZM27,35a4,4,0,1,0-4-4A4.0039,4.0039,0,0,0,27,35Zm11.8-6.4A1,1,0,1,0,37.2,27.4l-12,16A1,1,0,1,0,26.8,44.6ZM37,45a4,4,0,1,0-4-4A4.0039,4.0039,0,0,0,37,45Zm9.8154,1.0508a1,1,0,0,0-1.8515-.7559,14.0834,14.0834,0,0,1-7.8213,7.7315,1,1,0,0,0,.3672,1.93.9883.9883,0,0,0,.3672-.07A16.083,16.083,0,0,0,46.8154,46.0508Z"/></g><text x="0" y="79" fill="#3589df" font-size="5px" font-weight="bold" font-family="'Helvetica Neue', Helvetica, Arial-Unicode, Arial, Sans-serif"></text><text x="0" y="84" fill="#3589df" font-size="5px" font-weight="bold" font-family="'Helvetica Neue', Helvetica, Arial-Unicode, Arial, Sans-serif"></text></svg>