<svg xmlns="http://www.w3.org/2000/svg" data-name="Layer 1" viewBox="0 0 68 85" x="0px" y="0px"><title>placeholder pin map pointer location </title><polygon points="64 7.21 64 61.17 50.5 63.79 50.5 9.83 64 7.21"/><path d="M19.5,4.21v54l29,5.61v-54ZM34.89,53.46a1,1,0,0,1-1.78,0C32.62,52.49,21,29.79,21,23a13,13,0,1,1,26,0C47,29.79,35.38,52.49,34.89,53.46Z"/><polygon points="17.5 4.21 17.5 58.17 4 60.79 4 6.83 17.5 4.21"/><path d="M34,12A11,11,0,0,0,23,23c0,5.28,8.24,22.24,11,27.78C36.76,45.24,45,28.28,45,23A11,11,0,0,0,34,12Zm0,18a7,7,0,1,1,7-7A7,7,0,0,1,34,30Z"/><circle cx="34" cy="23" r="5"/><text x="0" y="83" fill="#000000" font-size="5px" font-weight="bold" font-family="'Helvetica Neue', Helvetica, Arial-Unicode, Arial, Sans-serif"></text><text x="0" y="88" fill="#000000" font-size="5px" font-weight="bold" font-family="'Helvetica Neue', Helvetica, Arial-Unicode, Arial, Sans-serif"></text></svg>