<svg xmlns="http://www.w3.org/2000/svg" xmlns:xlink="http://www.w3.org/1999/xlink" version="1.1" x="0px" y="0px" viewBox="0 0 100 125" style="enable-background:new 0 0 100 100;" xml:space="preserve"><path d="M50.1,25.3c-13.6,0-24.7,11.1-24.7,24.7s11.1,24.7,24.7,24.7S74.8,63.6,74.8,50S63.8,25.3,50.1,25.3z M50.6,5.9  C26.2,5.9,6.5,25.7,6.5,50s19.8,44.1,44.1,44.1S94.7,74.3,94.7,50S74.9,5.9,50.6,5.9z M50.6,84.1c-18.8,0-34.1-15.3-34.1-34.1  s15.3-34.1,34.1-34.1S84.7,31.2,84.7,50S69.4,84.1,50.6,84.1z"/><text x="0" y="115" fill="#000000" font-size="5px" font-weight="bold" font-family="'Helvetica Neue', Helvetica, Arial-Unicode, Arial, Sans-serif"></text><text x="0" y="120" fill="#000000" font-size="5px" font-weight="bold" font-family="'Helvetica Neue', Helvetica, Arial-Unicode, Arial, Sans-serif"></text></svg>