<svg xmlns="http://www.w3.org/2000/svg" data-name="Layer 1" viewBox="0 0 100 125" x="0px" y="0px"><title>91all</title><path d="M75.27,45.52a29.55,29.55,0,0,0-8.71-21l0,0A29.75,29.75,0,0,0,24.45,66.52l0,0a29.74,29.74,0,0,0,39.45,2.32L79.72,84.67l5-5L68.88,63.93A29.51,29.51,0,0,0,75.27,45.52ZM45.52,68.27a22.59,22.59,0,0,1-16.06-6.64l0,0A22.75,22.75,0,0,1,61.6,29.43l0,0a22.75,22.75,0,0,1,0,32.14h0A22.6,22.6,0,0,1,45.52,68.27Z"/><text x="0" y="115" fill="#000000" font-size="5px" font-weight="bold" font-family="'Helvetica Neue', Helvetica, Arial-Unicode, Arial, Sans-serif"></text><text x="0" y="120" fill="#000000" font-size="5px" font-weight="bold" font-family="'Helvetica Neue', Helvetica, Arial-Unicode, Arial, Sans-serif"></text></svg>