<svg xmlns="http://www.w3.org/2000/svg" data-name="Layer 2" viewBox="0 0 100 125" x="0px" y="0px"><title>Artboard 26</title><path d="M80,5H20A15,15,0,0,0,5,20V80A15,15,0,0,0,20,95H80A15,15,0,0,0,95,80V20A15,15,0,0,0,80,5Zm0,80H20a5,5,0,0,1-5-5V20a5,5,0,0,1,5-5H80a5,5,0,0,1,5,5V80A5,5,0,0,1,80,85Z"/><path d="M68,27H32.19a5.12,5.12,0,0,0-5.08,4A5,5,0,0,0,32,37H67.81a5.12,5.12,0,0,0,5.08-4A5,5,0,0,0,68,27Z"/><path d="M68,45H32.19a5.12,5.12,0,0,0-5.08,4A5,5,0,0,0,32,55H67.81a5.12,5.12,0,0,0,5.08-4A5,5,0,0,0,68,45Z"/><path d="M68,63H32.19a5.12,5.12,0,0,0-5.08,4A5,5,0,0,0,32,73H67.81a5.12,5.12,0,0,0,5.08-4A5,5,0,0,0,68,63Z"/><text x="0" y="115" fill="#ffffff" font-size="5px" font-weight="bold" font-family="'Helvetica Neue', Helvetica, Arial-Unicode, Arial, Sans-serif"></text><text x="0" y="120" fill="#ffffff" font-size="5px" font-weight="bold" font-family="'Helvetica Neue', Helvetica, Arial-Unicode, Arial, Sans-serif"></text></svg>